<svg xmlns="http://www.w3.org/2000/svg" width="120" height="120" viewBox="0 0 120 120" fill="none">
  <defs>
    <linearGradient id="logoBluePurple" x1="0%" y1="0%" x2="100%" y2="100%">
      <stop offset="0%" stop-color="#3b82f6" />
      <stop offset="100%" stop-color="#a855f7" />
    </linearGradient>
    <linearGradient id="logoBlueGreen" x1="0%" y1="0%" x2="100%" y2="100%">
      <stop offset="0%" stop-color="#3b82f6" />
      <stop offset="100%" stop-color="#10b981" />
    </linearGradient>
    <linearGradient id="logoGreenPurple" x1="0%" y1="0%" x2="100%" y2="100%">
      <stop offset="100%" stop-color="#10b981" />
      <stop offset="0%" stop-color="#a855f7" />
    </linearGradient>
  </defs>
  <polygon points="60,15 105,40 105,90 60,115 15,90 15,40" stroke="url(#logoBluePurple)" stroke-width="3" fill="none" opacity="0.3" />
  <path d="M 36 82 L 36 42 L 60 82 L 60 42" stroke="url(#logoBlueGreen)" stroke-width="8" stroke-linecap="round" stroke-linejoin="round" />
  <path d="M 60 42 L 73 64 L 86 42 L 86 82" stroke="url(#logoGreenPurple)" stroke-width="8" stroke-linecap="round" stroke-linejoin="round" />
  <circle cx="60" cy="15" r="4" fill="#f8fafc" />
  <circle cx="105" cy="40" r="4" fill="#f8fafc" />
  <circle cx="105" cy="90" r="4" fill="#f8fafc" />
  <circle cx="60" cy="115" r="4" fill="#f8fafc" />
  <circle cx="15" cy="90" r="4" fill="#f8fafc" />
  <circle cx="15" cy="40" r="4" fill="#f8fafc" />
</svg>
